<svg xmlns="http://www.w3.org/2000/svg" viewBox="0 2 100 58"><path d="M10.3 56.0 L10.8 52.6 L10.3 49.0 L12.1 45.8 L12.4 42.3 L14.0 39.2 L16.0 36.4 L17.2 33.0 L20.0 30.8 L21.8 27.8 L24.8 26.0 L27.5 23.8 L30.1 21.5 L32.8 19.2 L36.6 19.0 L39.8 17.8 L43.0 16.4 L46.4 15.3 L50.0 15.9 L53.5 16.3 L57.1 15.8 L60.1 18.2 L63.9 17.8 L66.7 20.1 L69.7 21.9 L72.5 23.8 L75.5 25.6 L78.7 27.3 L80.2 30.7 L82.9 33.0 L84.9 35.9 L86.0 39.2 L87.7 42.3 L87.9 45.9 L88.6 49.2 L89.3 52.6 L90.3 56.0" fill="none" stroke="#2B2B2B" stroke-width="1.6" stroke-linecap="round" stroke-linejoin="round" opacity=".85"/><path d="M10.1 56.0 L10.5 52.5 L10.5 49.0 L11.4 45.7 L12.8 42.4 L13.3 38.9 L15.0 35.8 L17.6 33.3 L19.3 30.2 L21.7 27.7 L23.9 24.8 L26.8 22.9 L30.2 21.7 L32.7 19.0 L36.6 19.1 L39.7 17.5 L43.0 16.2 L46.6 16.8 L50.0 16.0 L53.4 17.0 L57.0 16.3 L60.5 16.9 L63.7 18.3 L67.2 19.1 L69.8 21.6 L73.1 22.9 L75.8 25.2 L78.4 27.6 L80.6 30.3 L83.3 32.7 L85.3 35.6 L86.2 39.1 L87.9 42.2 L87.9 45.9 L89.7 49.0 L90.1 52.5 L90.9 56.0" fill="none" stroke="#2B2B2B" stroke-width="1.6" stroke-linecap="round" stroke-linejoin="round" opacity=".85"/><path d="M20.4 56.0 L21.5 53.5 L21.6 51.0 L21.7 48.4 L23.6 46.4 L23.8 43.8 L25.4 41.8 L26.8 39.8 L28.4 37.9 L29.2 35.2 L31.8 34.3 L33.6 32.6 L35.6 31.1 L37.5 29.1 L40.3 29.5 L42.5 28.1 L44.9 27.4 L47.4 26.4 L50.0 26.4 L52.6 26.5 L55.0 27.8 L57.5 28.1 L59.8 29.0 L62.5 29.1 L64.9 30.2 L66.3 32.8 L68.3 34.2 L70.2 35.8 L71.8 37.7 L73.7 39.4 L75.3 41.4 L75.9 43.9 L76.4 46.4 L77.9 48.5 L78.3 51.0 L79.0 53.5 L79.8 56.0" fill="none" stroke="#2B2B2B" stroke-width="1.6" stroke-linecap="round" stroke-linejoin="round" opacity=".85"/><path d="M20.7 56.0 L21.1 53.5 L21.2 50.9 L21.7 48.4 L23.5 46.4 L23.1 43.4 L24.4 41.2 L25.7 39.0 L27.4 37.0 L29.6 35.6 L31.5 33.9 L33.8 32.8 L35.4 30.7 L38.1 30.4 L40.3 29.5 L42.6 28.5 L45.1 28.0 L47.5 27.4 L50.0 27.8 L52.4 28.0 L54.9 28.1 L57.3 28.7 L59.8 29.0 L61.9 30.5 L64.8 30.3 L66.8 32.1 L68.2 34.3 L70.2 35.8 L72.0 37.5 L73.6 39.5 L74.5 41.8 L76.9 43.5 L78.1 45.8 L78.0 48.5 L78.5 51.0 L78.1 53.5 L78.3 56.0" fill="none" stroke="#2B2B2B" stroke-width="1.6" stroke-linecap="round" stroke-linejoin="round" opacity=".85"/><path d="M32.3 56.0 L32.5 54.5 L31.7 52.8 L33.2 51.5 L33.9 50.1 L33.0 48.0 L34.4 47.0 L35.8 46.0 L36.2 44.4 L37.9 43.9 L38.4 42.2 L39.2 40.5 L40.7 39.8 L42.2 39.4 L44.0 39.5 L45.4 38.8 L47.0 38.9 L48.4 37.6 L50.0 37.9 L51.6 37.6 L53.1 38.6 L54.5 39.1 L56.3 38.6 L58.0 38.9 L59.3 39.9 L60.6 40.8 L61.9 41.8 L63.0 43.0 L63.4 44.7 L64.8 45.7 L65.4 47.1 L65.5 48.8 L66.1 50.1 L67.0 51.4 L67.3 52.9 L68.3 54.4 L68.8 56.0" fill="none" stroke="#2B2B2B" stroke-width="1.6" stroke-linecap="round" stroke-linejoin="round" opacity=".85"/><path d="M32.1 56.0 L31.3 54.4 L31.4 52.7 L31.8 51.1 L33.3 49.9 L34.1 48.6 L34.8 47.2 L35.7 46.0 L36.6 44.8 L37.1 43.1 L38.0 41.7 L39.3 40.8 L41.0 40.4 L42.3 39.4 L43.7 38.6 L45.5 39.3 L46.8 38.0 L48.4 37.3 L50.0 37.5 L51.6 37.6 L53.1 38.3 L54.5 39.2 L56.3 38.6 L57.5 40.0 L59.3 39.9 L60.8 40.6 L61.4 42.4 L62.6 43.4 L64.4 43.9 L65.1 45.4 L65.1 47.3 L65.7 48.7 L66.3 50.1 L68.1 51.2 L68.3 52.8 L67.3 54.5 L68.6 56.0" fill="none" stroke="#2B2B2B" stroke-width="1.6" stroke-linecap="round" stroke-linejoin="round" opacity=".85"/><path d="M43.7 58.3 L43.9 57.2 L44.2 56.2 L44.0 55.3 L44.7 54.5 L45.2 53.8 L44.5 52.3 L45.5 51.8 L46.3 51.2 L46.8 50.2 L48.0 50.4 L48.8 49.6 L49.8 49.5 L50.7 50.4 L51.6 50.6 L52.4 50.8 L53.2 51.3 L54.2 51.5 L54.5 52.5 L55.1 53.1 L55.2 54.1 L56.5 54.7 L55.8 55.8 L55.9 56.7 L55.9 57.7 L56.0 58.8 L54.9 59.3 L54.8 60.5 L53.7 60.7 L52.9 61.3 L52.1 61.7 L51.0 61.2 L50.2 61.9 L49.3 61.5 L48.5 61.1 L47.3 61.8 L46.9 60.6 L45.9 60.4 L45.0 59.9 L44.7 58.9 L44.6 58.0" fill="none"/><path d="M56.1 11.1 L57.1 12.0 L57.1 13.7 L56.5 15.9 L56.1 17.1 L55.3 18.7 L53.4 19.3 L51.8 19.8 L50.2 19.9 L48.2 19.8 L47.0 19.4 L45.5 18.8 L43.6 17.1 L43.8 16.0 L42.6 13.5 L43.2 11.9 L43.6 10.5 L45.3 10.1 L47.0 8.4 L48.4 8.4 L49.6 8.5 L52.4 7.9 L54.0 8.7 L54.9 10.3 L56.5 10.6 L56.7 12.5 L56.8 13.6 L56.5 15.8 L55.5 17.1" fill="none" stroke="#D9772B" stroke-width="2" stroke-linecap="round"/></svg>