<svg xmlns="http://www.w3.org/2000/svg" viewBox="0 0 100 56"><rect width="100" height="56" rx="6" fill="#111315"/><circle cx="6.0" cy="6.0" r="2.2" fill="#2E3338"/><circle cx="6.0" cy="12.3" r="2.2" fill="#2E3338"/><circle cx="6.0" cy="18.6" r="2.2" fill="#2E3338"/><circle cx="6.0" cy="24.9" r="2.2" fill="#2E3338"/><circle cx="6.0" cy="31.2" r="2.2" fill="#2E3338"/><circle cx="6.0" cy="37.5" r="2.2" fill="#2E3338"/><circle cx="6.0" cy="43.8" r="2.2" fill="#2E3338"/><circle cx="6.0" cy="50.1" r="2.2" fill="#2E3338"/><circle cx="12.3" cy="6.0" r="2.2" fill="#2E3338"/><circle cx="12.3" cy="12.3" r="2.2" fill="#2E3338"/><circle cx="12.3" cy="18.6" r="2.2" fill="#2E3338"/><circle cx="12.3" cy="24.9" r="2.2" fill="#2E3338"/><circle cx="12.3" cy="31.2" r="2.2" fill="#F2F2EE"/><circle cx="12.3" cy="37.5" r="2.2" fill="#F2F2EE"/><circle cx="12.3" cy="43.8" r="2.2" fill="#F2F2EE"/><circle cx="12.3" cy="50.1" r="2.2" fill="#F2F2EE"/><circle cx="18.6" cy="6.0" r="2.2" fill="#2E3338"/><circle cx="18.6" cy="12.3" r="2.2" fill="#2E3338"/><circle cx="18.6" cy="18.6" r="2.2" fill="#2E3338"/><circle cx="18.6" cy="24.9" r="2.2" fill="#F2F2EE"/><circle cx="18.6" cy="31.2" r="2.2" fill="#F2F2EE"/><circle cx="18.6" cy="37.5" r="2.2" fill="#F2F2EE"/><circle cx="18.6" cy="43.8" r="2.2" fill="#F2F2EE"/><circle cx="18.6" cy="50.1" r="2.2" fill="#F2F2EE"/><circle cx="24.9" cy="6.0" r="2.2" fill="#2E3338"/><circle cx="24.9" cy="12.3" r="2.2" fill="#2E3338"/><circle cx="24.9" cy="18.6" r="2.2" fill="#F2F2EE"/><circle cx="24.9" cy="24.9" r="2.2" fill="#F2F2EE"/><circle cx="24.9" cy="31.2" r="2.2" fill="#F2F2EE"/><circle cx="24.9" cy="37.5" r="2.2" fill="#F2F2EE"/><circle cx="24.9" cy="43.8" r="2.2" fill="#F2F2EE"/><circle cx="24.9" cy="50.1" r="2.2" fill="#F2F2EE"/><circle cx="31.2" cy="6.0" r="2.2" fill="#2E3338"/><circle cx="31.2" cy="12.3" r="2.2" fill="#F2F2EE"/><circle cx="31.2" cy="18.6" r="2.2" fill="#F2F2EE"/><circle cx="31.2" cy="24.9" r="2.2" fill="#F2F2EE"/><circle cx="31.2" cy="31.2" r="2.2" fill="#F2F2EE"/><circle cx="31.2" cy="37.5" r="2.2" fill="#F2F2EE"/><circle cx="31.2" cy="43.8" r="2.2" fill="#2E3338"/><circle cx="31.2" cy="50.1" r="2.2" fill="#2E3338"/><circle cx="37.5" cy="6.0" r="2.2" fill="#2E3338"/><circle cx="37.5" cy="12.3" r="2.2" fill="#F2F2EE"/><circle cx="37.5" cy="18.6" r="2.2" fill="#F2F2EE"/><circle cx="37.5" cy="24.9" r="2.2" fill="#F2F2EE"/><circle cx="37.5" cy="31.2" r="2.2" fill="#F2F2EE"/><circle cx="37.5" cy="37.5" r="2.2" fill="#2E3338"/><circle cx="37.5" cy="43.8" r="2.2" fill="#2E3338"/><circle cx="37.5" cy="50.1" r="2.2" fill="#2E3338"/><circle cx="43.8" cy="6.0" r="2.2" fill="#2E3338"/><circle cx="43.8" cy="12.3" r="2.2" fill="#F2F2EE"/><circle cx="43.8" cy="18.6" r="2.2" fill="#F2F2EE"/><circle cx="43.8" cy="24.9" r="2.2" fill="#F2F2EE"/><circle cx="43.8" cy="31.2" r="2.2" fill="#2E3338"/><circle cx="43.8" cy="37.5" r="2.2" fill="#2E3338"/><circle cx="43.8" cy="43.8" r="2.2" fill="#2E3338"/><circle cx="43.8" cy="50.1" r="2.2" fill="#2E3338"/><circle cx="50.1" cy="6.0" r="2.2" fill="#2E3338"/><circle cx="50.1" cy="12.3" r="2.2" fill="#2E3338"/><circle cx="50.1" cy="18.6" r="2.2" fill="#2E3338"/><circle cx="50.1" cy="24.9" r="2.2" fill="#F2F2EE"/><circle cx="50.1" cy="31.2" r="2.2" fill="#2E3338"/><circle cx="50.1" cy="37.5" r="2.2" fill="#2E3338"/><circle cx="50.1" cy="43.8" r="2.2" fill="#2E3338"/><circle cx="50.1" cy="50.1" r="2.2" fill="#2E3338"/><circle cx="56.4" cy="6.0" r="2.2" fill="#2E3338"/><circle cx="56.4" cy="12.3" r="2.2" fill="#F2F2EE"/><circle cx="56.4" cy="18.6" r="2.2" fill="#F2F2EE"/><circle cx="56.4" cy="24.9" r="2.2" fill="#F2F2EE"/><circle cx="56.4" cy="31.2" r="2.2" fill="#2E3338"/><circle cx="56.4" cy="37.5" r="2.2" fill="#2E3338"/><circle cx="56.4" cy="43.8" r="2.2" fill="#2E3338"/><circle cx="56.4" cy="50.1" r="2.2" fill="#2E3338"/><circle cx="62.7" cy="6.0" r="2.2" fill="#2E3338"/><circle cx="62.7" cy="12.3" r="2.2" fill="#F2F2EE"/><circle cx="62.7" cy="18.6" r="2.2" fill="#F2F2EE"/><circle cx="62.7" cy="24.9" r="2.2" fill="#F2F2EE"/><circle cx="62.7" cy="31.2" r="2.2" fill="#F2F2EE"/><circle cx="62.7" cy="37.5" r="2.2" fill="#2E3338"/><circle cx="62.7" cy="43.8" r="2.2" fill="#2E3338"/><circle cx="62.7" cy="50.1" r="2.2" fill="#2E3338"/><circle cx="69.0" cy="6.0" r="2.2" fill="#2E3338"/><circle cx="69.0" cy="12.3" r="2.2" fill="#F2F2EE"/><circle cx="69.0" cy="18.6" r="2.2" fill="#F2F2EE"/><circle cx="69.0" cy="24.9" r="2.2" fill="#F2F2EE"/><circle cx="69.0" cy="31.2" r="2.2" fill="#F2F2EE"/><circle cx="69.0" cy="37.5" r="2.2" fill="#F2F2EE"/><circle cx="69.0" cy="43.8" r="2.2" fill="#2E3338"/><circle cx="69.0" cy="50.1" r="2.2" fill="#2E3338"/><circle cx="75.3" cy="6.0" r="2.2" fill="#2E3338"/><circle cx="75.3" cy="12.3" r="2.2" fill="#2E3338"/><circle cx="75.3" cy="18.6" r="2.2" fill="#F2F2EE"/><circle cx="75.3" cy="24.9" r="2.2" fill="#F2F2EE"/><circle cx="75.3" cy="31.2" r="2.2" fill="#F2F2EE"/><circle cx="75.3" cy="37.5" r="2.2" fill="#F2F2EE"/><circle cx="75.3" cy="43.8" r="2.2" fill="#F2F2EE"/><circle cx="75.3" cy="50.1" r="2.2" fill="#F2F2EE"/><circle cx="81.6" cy="6.0" r="2.2" fill="#2E3338"/><circle cx="81.6" cy="12.3" r="2.2" fill="#2E3338"/><circle cx="81.6" cy="18.6" r="2.2" fill="#2E3338"/><circle cx="81.6" cy="24.9" r="2.2" fill="#F2F2EE"/><circle cx="81.6" cy="31.2" r="2.2" fill="#F2F2EE"/><circle cx="81.6" cy="37.5" r="2.2" fill="#F2F2EE"/><circle cx="81.6" cy="43.8" r="2.2" fill="#F2F2EE"/><circle cx="81.6" cy="50.1" r="2.2" fill="#F2F2EE"/><circle cx="87.9" cy="6.0" r="2.2" fill="#2E3338"/><circle cx="87.9" cy="12.3" r="2.2" fill="#2E3338"/><circle cx="87.9" cy="18.6" r="2.2" fill="#2E3338"/><circle cx="87.9" cy="24.9" r="2.2" fill="#2E3338"/><circle cx="87.9" cy="31.2" r="2.2" fill="#F2F2EE"/><circle cx="87.9" cy="37.5" r="2.2" fill="#F2F2EE"/><circle cx="87.9" cy="43.8" r="2.2" fill="#F2F2EE"/><circle cx="87.9" cy="50.1" r="2.2" fill="#F2F2EE"/><circle cx="94.2" cy="6.0" r="2.2" fill="#2E3338"/><circle cx="94.2" cy="12.3" r="2.2" fill="#2E3338"/><circle cx="94.2" cy="18.6" r="2.2" fill="#2E3338"/><circle cx="94.2" cy="24.9" r="2.2" fill="#2E3338"/><circle cx="94.2" cy="31.2" r="2.2" fill="#2E3338"/><circle cx="94.2" cy="37.5" r="2.2" fill="#2E3338"/><circle cx="94.2" cy="43.8" r="2.2" fill="#2E3338"/><circle cx="94.2" cy="50.1" r="2.2" fill="#2E3338"/></svg>